<svg id="Icon_Line_earth" data-name="Icon / Line / earth" xmlns="http://www.w3.org/2000/svg" width="20" height="20" viewBox="0 0 20 20">
  <path id="Shape" d="M10,20A10,10,0,1,1,20,10,10.011,10.011,0,0,1,10,20ZM4.235,4.453A8,8,0,0,0,13.052,17.4a3.441,3.441,0,0,0-.239-1.722,12.289,12.289,0,0,0-2.254-2.844c-.338-.356-.316-.629-.194-1.437l.013-.091c.082-.554.219-.882,2.085-1.178a2.473,2.473,0,0,1,.383-.033c.643,0,.871.347,1.159.787l.116.172a1.83,1.83,0,0,0,.937.755c.169.077.373.172.647.325.652.373.652.794.652,1.716v.1a5.247,5.247,0,0,1-.1,1.034A8,8,0,0,0,13.152,2.645,7.792,7.792,0,0,0,11.575,3.91a1.4,1.4,0,0,0-.113.246c-.136.339-.364.906-.836.965a1.613,1.613,0,0,1-.194.01c-.123,0-.257-.008-.42-.019-.147-.01-.314-.02-.481-.02a1.2,1.2,0,0,0-1.262.664,2.921,2.921,0,0,0,.356,2.4.583.583,0,0,1,.046.519,1,1,0,0,1-.292.5,2.685,2.685,0,0,1-.4-.41l-.017-.02a2.726,2.726,0,0,0-1.21-.959c-.184-.051-.386-.094-.581-.135C5.618,7.533,5,7.4,4.85,7.093a2.134,2.134,0,0,1-.105-.857V6.228a3.191,3.191,0,0,0-.2-1.345A1.273,1.273,0,0,0,4.235,4.453Z" fill="#185f76"/>
</svg>
