<svg xmlns="http://www.w3.org/2000/svg" width="19.335" height="21.728" viewBox="0 0 19.335 21.728">
  <path id="Shape" d="M9.667,21.728h0L2.828,15.364a8.574,8.574,0,0,1,0-12.728A9.984,9.984,0,0,1,9.667,0a9.984,9.984,0,0,1,6.839,2.636,8.574,8.574,0,0,1,0,12.728L9.668,21.727ZM9.667,2a7.766,7.766,0,0,0-5.32,2.051,6.669,6.669,0,0,0,0,9.9l5.32,4.95,5.32-4.95a6.669,6.669,0,0,0,0-9.9A7.766,7.766,0,0,0,9.667,2Zm0,9A2.081,2.081,0,0,1,7.518,9,2.081,2.081,0,0,1,9.667,7a2.081,2.081,0,0,1,2.149,2A2.081,2.081,0,0,1,9.667,11Z" fill="#185f76"/>
</svg>
