<svg id="Icon_Search_-_16" data-name="Icon / Search - 16" xmlns="http://www.w3.org/2000/svg" xmlns:xlink="http://www.w3.org/1999/xlink" width="16.89" height="16.89" viewBox="0 0 16.89 16.89">
  <defs>
    <clipPath id="clip-path">
      <path id="Path_3029" data-name="Path 3029" d="M800.943-2509.905l-5.207-5.207a6.677,6.677,0,0,0-.848-9.324,6.677,6.677,0,0,0-9.325.848,6.678,6.678,0,0,0,.848,9.324,6.59,6.59,0,0,0,8.477,0l5.207,5.207Zm-15.743-9.446a5.427,5.427,0,0,1,5.449-5.449,5.427,5.427,0,0,1,5.449,5.449,5.427,5.427,0,0,1-5.449,5.449A5.427,5.427,0,0,1,785.2-2519.351Z" transform="translate(-784.053 2525.948)" fill="#525252" clip-rule="evenodd"/>
    </clipPath>
    <clipPath id="clip-path-2">
      <path id="Path_3028" data-name="Path 3028" d="M16-2496.248H1256.054V-2535H16Z" transform="translate(-16 2535)" fill="#525252"/>
    </clipPath>
  </defs>
  <g id="Group_2829" data-name="Group 2829" clip-path="url(#clip-path)">
    <g id="Group_2828" data-name="Group 2828" transform="translate(-930.104 -10.963)" clip-path="url(#clip-path-2)">
      <path id="Path_3027" data-name="Path 3027" d="M779.053-2530.947h29v29h-29Z" transform="translate(144.997 2535.855)" fill="#525252"/>
    </g>
  </g>
</svg>
