<svg id="Layer_2" xmlns="http://www.w3.org/2000/svg" width="17.875" height="15.125" viewBox="0 0 17.875 15.125">
  <path id="Path" d="M12.375,1.375H.688A.688.688,0,0,1,.688,0H12.375a.688.688,0,0,1,0,1.375Z" transform="translate(4.813 1.375)" fill="#77838f"/>
  <path id="Path-2" data-name="Path" d="M2.75,1.375H.688A.688.688,0,0,1,.688,0H2.75a.688.688,0,0,1,0,1.375Z" transform="translate(0 1.375)" fill="#77838f"/>
  <path id="Path-3" data-name="Path" d="M12.375,1.375H.688A.688.688,0,0,1,.688,0H12.375a.688.688,0,0,1,0,1.375Z" transform="translate(0 6.875)" fill="#77838f"/>
  <path id="Path-4" data-name="Path" d="M5.5,1.375H.688A.688.688,0,0,1,.688,0H5.5a.688.688,0,0,1,0,1.375Z" transform="translate(0 12.375)" fill="#77838f"/>
  <path id="Shape" d="M0,2.063A2.062,2.062,0,1,1,2.063,4.125,2.063,2.063,0,0,1,0,2.063Z" transform="translate(2.063)" fill="#77838f"/>
  <path id="Shape-2" data-name="Shape" d="M0,2.063A2.062,2.062,0,1,1,2.063,4.125,2.063,2.063,0,0,1,0,2.063Z" transform="translate(11.688 5.5)" fill="#77838f"/>
  <path id="Shape-3" data-name="Shape" d="M0,2.063A2.062,2.062,0,1,1,2.063,4.125,2.063,2.063,0,0,1,0,2.063Z" transform="translate(4.813 11)" fill="#77838f"/>
  <path id="Path-5" data-name="Path" d="M2.75,1.375H.688A.688.688,0,0,1,.688,0H2.75a.688.688,0,0,1,0,1.375Z" transform="translate(14.438 6.875)" fill="#77838f"/>
  <path id="Path-6" data-name="Path" d="M9.625,1.375H.688A.688.688,0,0,1,.688,0H9.625a.688.688,0,0,1,0,1.375Z" transform="translate(7.563 12.375)" fill="#77838f"/>
</svg>
