<svg id="Group_701" data-name="Group 701" xmlns="http://www.w3.org/2000/svg" width="21.644" height="19.514" viewBox="0 0 21.644 19.514">
  <path id="Path_1987" data-name="Path 1987" d="M40.172,15.209l-.121-.218c-.363-.714-4.836-1.809-5.207-1.826l-.3.019a7.938,7.938,0,0,0-2.692,1.626A18.4,18.4,0,0,1,27.065,11.6,13.3,13.3,0,0,1,24.07,7.5c1.609-1.187,2.279-1.7,2.321-2.275.023-.309-.745-4.134-1.553-4.522L24.6.576A3.4,3.4,0,0,0,22.44.03a2.119,2.119,0,0,0-.6.2,7.217,7.217,0,0,0-2.647,2.2c-.4.667-.581,6.759,4.9,11.908a19.388,19.388,0,0,0,12.317,5.175h.283a3.7,3.7,0,0,0,.5-.035l.029,0,.089-.023a7.521,7.521,0,0,0,2.936-1.923C41.05,16.707,40.481,15.732,40.172,15.209Z" transform="translate(-19.015 0)" fill="rgba(24,95,118,0.6)"/>
</svg>
