<svg xmlns="http://www.w3.org/2000/svg" width="24" height="24" viewBox="0 0 24 24">
  <path id="settings" d="M9.08,21a.7.7,0,0,0-.483-.685.647.647,0,0,0-.709.122l-.059.059a3,3,0,1,1-4.245-4.243l.052-.053a.663.663,0,0,0-.465-1.12H3a3,3,0,1,1,0-6A.7.7,0,0,0,3.685,8.6a.647.647,0,0,0-.122-.709L3.5,7.827A3,3,0,1,1,7.747,3.583l.052.052a.65.65,0,0,0,.717.13,1.029,1.029,0,0,1,.2-.064A.649.649,0,0,0,9,3.17V3a3,3,0,0,1,6,0v.086a.653.653,0,0,0,.4.6.646.646,0,0,0,.709-.122l.059-.059a3,3,0,1,1,4.244,4.244l-.052.052a.648.648,0,0,0-.13.716.989.989,0,0,1,.065.2A.646.646,0,0,0,20.83,9H21a3,3,0,0,1,0,6h-.086a.663.663,0,0,0-.477,1.112l.059.059a3,3,0,1,1-4.244,4.245l-.052-.053a.655.655,0,0,0-.727-.125.648.648,0,0,0-.393.59V21a3,3,0,1,1-6,0Zm.266-2.538a2.657,2.657,0,0,1,1.734,2.448V21a1,1,0,0,0,2,0v-.174a2.663,2.663,0,0,1,4.527-1.884l.06.061a1,1,0,1,0,1.415-1.417l-.068-.068a2.651,2.651,0,0,1-.533-2.915v0h0v0A2.652,2.652,0,0,1,20.91,13H21a1,1,0,0,0,0-2h-.175A2.65,2.65,0,0,1,18.4,9.393a.96.96,0,0,1-.073-.264,2.654,2.654,0,0,1,.615-2.737l.06-.06a1,1,0,1,0-1.416-1.416l-.068.068A2.663,2.663,0,0,1,13,3.09V3a1,1,0,1,0-2,0v.174A2.65,2.65,0,0,1,9.394,5.6a1.039,1.039,0,0,1-.265.073,2.656,2.656,0,0,1-2.737-.615L6.332,5A1,1,0,1,0,4.917,6.412l.068.068a2.623,2.623,0,0,1,.553,2.864A2.658,2.658,0,0,1,3.09,11.08H3a1,1,0,1,0,0,2h.174a2.663,2.663,0,0,1,1.883,4.527l-.06.06a1,1,0,0,0,1.417,1.416l.068-.068a2.676,2.676,0,0,1,1.863-.762A2.467,2.467,0,0,1,9.345,18.461ZM8,12a4,4,0,1,1,4,4A4,4,0,0,1,8,12Zm2,0a2,2,0,1,0,2-2A2,2,0,0,0,10,12Z" fill="#809fb8"/>
</svg>
