<svg xmlns="http://www.w3.org/2000/svg" width="25.035" height="24.4" viewBox="0 0 25.035 24.4">
  <path id="Icon_awesome-arrow-right" data-name="Icon awesome-arrow-right" d="M10.644,4.282l1.24-1.24a1.335,1.335,0,0,1,1.894,0L24.641,13.9a1.335,1.335,0,0,1,0,1.894L13.779,26.654a1.335,1.335,0,0,1-1.894,0l-1.24-1.24a1.342,1.342,0,0,1,.022-1.916L17.4,17.082H1.341A1.338,1.338,0,0,1,0,15.741V13.953a1.338,1.338,0,0,1,1.341-1.341H17.4L10.666,6.2A1.333,1.333,0,0,1,10.644,4.282Z" transform="translate(0 -2.647)"/>
</svg>
